<svg preserveAspectRatio="none" width="100%" height="100%" overflow="visible" style="display: block;" viewBox="0 0 363.474 71.7988" fill="none" xmlns="http://www.w3.org/2000/svg">
<g id="Frame 150">
<path id="Vector" d="M50.6544 12.6271C49.3674 10.1332 47.4112 7.98588 45.0031 6.42365C40.1354 3.2651 33.5518 2.90721 28.2208 5.50335C21.803 8.6335 18.371 15.1608 19.6809 21.7449C20.9793 28.2495 24.4456 33.936 27.8033 39.4407C30.6747 44.1502 33.649 49.0243 35.1991 54.3473C35.7654 56.2901 35.6167 58.0455 34.7644 59.568C33.7177 61.4199 31.6299 62.8515 28.8729 63.6014C22.6439 65.2943 16.7409 64.8796 10.5004 64.4421C10.4776 64.4421 10.4547 64.4308 10.4375 64.4251C10.3975 64.4137 10.3631 64.4024 10.3231 64.391C10.3231 64.391 10.3174 64.391 10.3117 64.391C11.7017 63.1753 13.0172 61.9426 14.2299 60.7212C14.779 60.1645 16.066 58.8692 15.6598 57.3638C15.431 56.506 14.7103 55.7334 13.738 55.2903C12.7598 54.8472 11.6959 54.8074 10.8951 55.1937C9.37359 55.9266 7.71481 56.9548 5.82151 58.3409C5.56411 58.5284 5.29527 58.7215 5.02643 58.9147C3.47061 60.0281 1.70891 61.2836 0.702197 63.0333C-0.110034 64.4478 -0.218746 65.7658 0.381847 66.9531C2.03491 70.2196 8.47555 71.1342 9.74538 71.2819C12.4795 71.6057 15.1336 71.7761 17.6332 71.7988C17.8048 71.7988 17.9764 71.7988 18.148 71.7988C24.3827 71.7988 29.9082 70.8445 34.5756 68.9584C39.9638 66.7826 43.0011 61.4484 42.3033 55.3812C41.451 47.9791 37.4413 41.2245 33.5575 34.6915C31.0693 30.5047 28.5011 26.1816 26.8709 21.8187C25.3494 17.7513 27.2427 13.5361 31.3725 11.7977C35.4394 10.0878 40.4786 11.0024 43.0869 13.9337C43.8877 14.8313 44.7743 15.6607 45.6323 16.4674L45.8382 16.6605C46.4903 17.2684 47.2682 17.5127 48.0976 17.365C49.2358 17.1605 50.2025 16.4617 50.6887 15.4903C51.1349 14.5927 51.1234 13.5474 50.6544 12.6385V12.6271Z" fill="var(--fill-0, #7A00DB)"/>
<path id="Vector_2" d="M99.2128 1.0461C98.6031 0.429122 97.6002 -0.0379318 96.7283 0.002431C95.8166 0.0427938 94.8763 0.348397 94.2438 1.0461C93.5657 1.78993 93.3434 2.56835 93.2123 3.56013C92.141 11.7077 91.0697 19.8494 89.9927 27.9969C89.7362 27.9969 89.4741 28.02 89.2063 28.0777C82.5847 29.525 75.9801 31.0414 69.387 32.6156C69.7346 29.1559 70.0765 25.6905 70.4241 22.2308C70.8572 17.8601 71.296 13.4951 71.7291 9.12443C71.9058 7.35999 70.0708 5.67052 68.3897 5.74548C67.2671 5.79738 66.2471 6.33939 65.6431 7.31387C65.0562 8.26528 64.8852 9.52229 64.4008 10.5429C63.187 13.1088 61.1755 15.4729 59.0899 17.37C58.7536 17.6756 57.4088 18.9153 56.9244 20.4145C56.5483 21.5619 57.0897 22.3058 57.6995 23.113C58.3092 23.9203 59.1981 24.3758 60.1441 24.2374C61.09 24.099 61.7168 23.4648 62.3437 22.819C62.8622 22.2885 63.358 21.7407 63.8481 21.1871C63.415 25.5463 62.9762 29.9113 62.5432 34.2705C61.8138 34.4492 61.0786 34.628 60.3492 34.8067C58.6511 35.2276 57.4772 37.2573 58.0185 38.9583C58.5599 40.6478 60.1269 41.6569 61.8365 41.3743C61.3806 45.9584 60.9248 50.5425 60.4632 55.1323C60.0301 59.503 59.5913 63.868 59.1582 68.2387C58.9816 70.0031 60.8165 71.6926 62.4975 71.6176C64.4578 71.5312 65.6488 70.13 65.8368 68.2387C66.7828 58.7361 67.7344 49.2278 68.6804 39.7252C75.4616 38.0934 82.2599 36.525 89.0695 35.0201C88.2376 41.3513 87.3999 47.6882 86.5679 54.0194C85.9411 58.7592 85.32 63.4989 84.6931 68.2387C84.5849 69.0748 85.1661 70.1876 85.7245 70.7527C86.3343 71.3697 87.3372 71.8368 88.2091 71.7964C89.1208 71.756 90.061 71.4504 90.6936 70.7527C91.3717 70.0089 91.594 69.2305 91.725 68.2387C93.9417 51.4189 96.1528 34.6049 98.3695 17.7851C98.9963 13.0454 99.6174 8.30564 100.244 3.56589C100.353 2.7298 99.7713 1.61694 99.2128 1.05186V1.0461Z" fill="var(--fill-0, #7A00DB)"/>
<path id="Vector_3" d="M117.069 71.7988C116.204 71.7988 115.35 71.4494 114.67 70.8079C113.868 70.0519 113.395 69.0209 113.383 67.9785C113.314 62.6518 113.839 57.1762 114.946 51.7063L115.218 50.3718L112.414 51.9526C111.554 52.428 110.712 52.6742 109.916 52.6742C109.333 52.6742 108.756 52.5425 108.208 52.2905C107.366 51.901 106.304 51.1564 106.085 50.3431C105.802 49.272 106.974 48.1494 108.289 47.0898C110.868 45.0107 113.948 43.2638 117.439 41.9006L117.71 41.7918L117.802 41.5168C117.877 41.2935 117.964 41.0586 118.073 40.7551C119.366 37.2727 121.096 32.9884 124.154 27.5586C127.131 22.2835 131.1 17.4894 135.958 13.314C139.5 10.2726 142.973 8.5028 146.901 7.75821C147.6 7.62648 148.303 7.55775 148.996 7.55775C150.905 7.55775 152.636 8.05605 154.003 8.99538C155.526 10.0435 156.496 11.5499 156.813 13.3541C156.917 13.967 156.986 14.6085 157.009 15.2557C157.09 17.4837 157.194 19.7175 157.297 21.8768C157.488 25.8346 157.684 29.9241 157.701 34.0079C157.724 39.0597 159.322 46.1677 162.449 55.1371L163.038 56.8211L163.632 55.1371C163.84 54.5529 164.053 54.0088 164.301 53.4818C164.826 52.3363 165.518 51.1507 166.626 51.0132C166.701 51.0018 166.782 51.0018 166.863 51.0018C167.664 51.0018 168.57 51.4371 169.153 51.8438C170.122 52.5196 170.468 53.4761 170.191 54.6961C170.105 55.0741 170.007 55.4407 169.909 55.8015C169.672 56.6836 169.453 57.5026 169.401 58.442C169.297 60.4352 169.28 62.4628 169.257 64.4273C169.245 65.2579 169.239 66.0311 169.228 66.7986C169.228 66.9933 169.228 67.1938 169.234 67.3885C169.245 67.8066 169.251 68.1789 169.199 68.5455C169.153 68.8777 168.939 69.1927 168.564 69.4848L168.288 69.7025V69.7139C168.241 69.7426 168.201 69.7712 168.155 69.7998C168.063 69.8571 167.964 69.9201 167.861 69.9717C166.655 70.5674 165.709 70.8365 164.797 70.8365C164.526 70.8365 164.255 70.8136 163.978 70.7621C161.843 70.3955 160.245 68.3966 158.457 63.866C156.328 58.4821 155.261 55.7844 151.338 40.7837C151.246 40.4401 150.974 39.3919 149.982 38.8764C149.59 38.6702 149.123 38.5671 148.598 38.5671C148.205 38.5671 147.778 38.6244 147.334 38.7389C144.328 39.5064 141.409 40.5661 138.582 41.5856C137.25 42.0667 135.923 42.5593 134.596 43.0518L134.336 43.1492C132.64 43.7792 130.719 44.4952 128.833 45.1653L128.637 45.2341C128.533 45.2742 128.446 45.3085 128.354 45.3372L127.806 45.5376C127.656 45.5949 127.506 45.6465 127.356 45.698C125.66 46.2765 124.494 47.1013 123.704 48.2984L123.652 48.3785L123.623 48.4702C122.706 51.7636 122.094 54.5243 121.702 57.159L121.621 57.726C121.61 57.852 121.598 57.9551 121.581 58.0639L121.517 58.5966C121.471 58.9918 121.431 59.3813 121.391 59.7765C121.292 60.7674 121.223 61.7354 121.171 62.669C121.073 64.3643 121.039 66.1514 121.067 67.9842C121.096 70.0232 119.4 71.7014 117.214 71.7988C117.162 71.7988 117.116 71.7988 117.069 71.7988ZM146.884 14.7058C146.186 14.7058 145.471 14.9292 144.825 15.3588C143.423 16.2866 142.061 17.2088 140.838 18.2799C134.913 23.4748 130.644 29.7809 127.788 37.5419L127.315 38.8249L128.596 38.3323C131.042 37.3929 133.961 36.3047 137.042 35.331C140.48 34.2428 144.075 33.2691 147.732 32.4271C149.278 32.072 150.155 31.2358 150.328 29.947V29.9069C150.392 29.4945 150.444 29.0535 150.426 28.601L150.248 23.4863L150.236 22.8448L150.178 21.2067C150.138 19.9351 150.092 18.6693 150.04 17.3978C150.011 16.6074 149.659 15.5478 148.182 14.9636C147.755 14.7975 147.317 14.7115 146.884 14.7115V14.7058Z" fill="var(--fill-0, #7A00DB)"/>
<path id="Vector_4" d="M218.482 1.0461C217.872 0.429122 216.869 -0.0379318 215.997 0.002431C215.085 0.0427938 214.145 0.348397 213.512 1.0461C212.834 1.78993 212.612 2.56835 212.481 3.56013C211.41 11.7077 210.338 19.8494 209.261 27.9969C209.005 27.9969 208.743 28.02 208.475 28.0777C201.853 29.525 195.249 31.0414 188.656 32.6156C189.003 29.1559 189.345 25.6905 189.693 22.2308C190.126 17.8601 190.565 13.4951 190.998 9.12443C191.174 7.35999 189.339 5.67052 187.658 5.74548C186.536 5.79738 185.516 6.33939 184.912 7.31387C184.325 8.26528 184.154 9.52229 183.669 10.5429C182.456 13.1088 180.444 15.4729 178.359 17.37C178.022 17.6756 176.677 18.9153 176.193 20.4145C175.817 21.5619 176.358 22.3058 176.968 23.113C177.578 23.9203 178.467 24.3758 179.413 24.2374C180.359 24.099 180.986 23.4648 181.612 22.819C182.131 22.2885 182.627 21.7407 183.117 21.1871C182.684 25.5463 182.245 29.9113 181.812 34.2705C181.082 34.4492 180.347 34.628 179.618 34.8067C177.92 35.2276 176.746 37.2573 177.287 38.9583C177.829 40.6478 179.396 41.6569 181.105 41.3743C180.649 45.9584 180.193 50.5425 179.732 55.1323C179.299 59.503 178.86 63.868 178.427 68.2387C178.25 70.0031 180.085 71.6926 181.766 71.6176C183.726 71.5312 184.917 70.13 185.106 68.2387C186.051 58.7361 187.003 49.2278 187.949 39.7252C194.73 38.0934 201.529 36.525 208.338 35.0201C207.506 41.3513 206.669 47.6882 205.837 54.0194C205.21 58.7592 204.589 63.4989 203.962 68.2387C203.854 69.0748 204.435 70.1876 204.993 70.7527C205.603 71.3697 206.606 71.8368 207.478 71.7964C208.389 71.756 209.33 71.4504 209.962 70.7527C210.64 70.0089 210.863 69.2305 210.994 68.2387C213.21 51.4189 215.421 34.6049 217.638 17.7851C218.265 13.0454 218.886 8.30564 219.513 3.56589C219.621 2.7298 219.04 1.61694 218.482 1.05186V1.0461Z" fill="var(--fill-0, #7A00DB)"/>
<path id="Vector_5" d="M264.767 11.2153C264.135 10.0064 262.409 9.75192 261.163 9.66516L260.929 9.64781C260.761 9.67673 260.582 9.71144 260.404 9.74036C260.024 8.89008 259.504 8.10921 258.756 7.44982C257.426 6.2872 255.582 5.6683 253.42 5.6683C251.694 5.6683 249.806 6.05584 248.102 6.76151C244.962 8.05716 241.521 9.84447 236.94 16.0335C231.096 23.9289 227.253 33.2068 225.834 42.8663C225.236 46.9326 225.152 50.4668 225.577 53.6538C226.744 62.3706 232.89 69.2711 241.236 71.2377C241.94 71.4055 242.655 71.5327 243.359 71.6253C244.27 71.7409 245.203 71.7988 246.119 71.7988C250.18 71.7988 254.359 70.642 258.203 68.4497C258.979 68.0102 259.744 67.5416 260.487 67.0384C261.197 66.5583 262.052 66.0435 262.621 65.3899C263.616 64.2446 263.728 62.44 262.996 61.1328C262.387 60.0396 261.236 59.357 260.024 59.305C258.839 59.2529 257.851 59.9354 256.979 60.6874C256.057 61.474 255.068 62.1624 254.024 62.7639C251.828 64.0249 249.387 64.8983 246.873 65.1065C246.504 65.1354 246.13 65.1585 245.756 65.1528H245.543C243.711 65.1354 242.024 64.7942 240.532 64.1348C238.247 63.1283 237.001 61.7054 236.398 61.0171C234.242 58.5588 233.068 55.2329 232.811 50.9006C242.957 49.2463 252.795 45.4461 261.532 39.8701C263.024 38.9215 263.733 36.7235 262.733 35.1213C261.767 33.5712 259.744 32.8597 258.147 33.8777C256.04 35.2197 253.873 36.4633 251.649 37.5854C250.543 38.1465 249.42 38.667 248.292 39.176C248.175 39.2281 248.052 39.2801 247.934 39.3264C247.627 39.4537 247.325 39.5809 247.018 39.7082C246.443 39.9453 245.862 40.1709 245.281 40.3907C241.298 41.9004 237.191 43.0514 233.024 43.8496C233.342 40.9518 233.923 38.106 234.778 35.3353C236.532 29.6437 239.342 24.3801 243.13 19.6891C244.851 17.5606 247.571 14.5586 251.286 13.101C251.733 12.9274 252.214 12.8291 252.627 12.8291C253.152 12.8291 253.521 12.9911 253.728 13.2861C253.7 13.3613 253.677 13.4364 253.649 13.5174C253.342 14.3446 253.024 15.2006 253.236 16.1377C253.37 16.7276 253.716 17.3003 254.297 17.8845C255.415 19.0066 256.884 19.747 258.432 19.9552C261.052 20.3138 262.415 17.7514 263.51 15.6923C263.722 15.2874 263.929 14.8941 264.141 14.5412C264.756 13.4885 265.314 12.2738 264.767 11.2269V11.2153Z" fill="var(--fill-0, #7A00DB)"/>
<path id="Vector_6" d="M310.23 11.2153C309.599 10.0064 307.873 9.75192 306.627 9.66516L306.392 9.64781C306.225 9.67673 306.046 9.71144 305.867 9.74036C305.487 8.89008 304.968 8.10921 304.219 7.44982C302.889 6.2872 301.046 5.6683 298.884 5.6683C297.158 5.6683 295.269 6.05584 293.565 6.76151C290.426 8.05716 286.984 9.84447 282.403 16.0335C276.56 23.9289 272.716 33.2068 271.297 42.8663C270.7 46.9326 270.616 50.4668 271.04 53.6538C272.208 62.3706 278.353 69.2711 286.7 71.2377C287.403 71.4055 288.119 71.5327 288.822 71.6253C289.733 71.7409 290.666 71.7988 291.582 71.7988C295.644 71.7988 299.822 70.642 303.666 68.4497C304.443 68.0102 305.208 67.5416 305.951 67.0384C306.66 66.5583 307.515 66.0435 308.085 65.3899C309.079 64.2446 309.191 62.44 308.459 61.1328C307.85 60.0396 306.7 59.357 305.487 59.305C304.303 59.2529 303.314 59.9354 302.443 60.6874C301.521 61.474 300.532 62.1624 299.487 62.7639C297.292 64.0249 294.85 64.8983 292.336 65.1065C291.968 65.1354 291.593 65.1585 291.219 65.1528H291.007C289.174 65.1354 287.487 64.7942 285.996 64.1348C283.711 63.1283 282.465 61.7054 281.862 61.0171C279.705 58.5588 278.532 55.2329 278.275 50.9006C288.42 49.2463 298.258 45.4461 306.996 39.8701C308.487 38.9215 309.197 36.7235 308.197 35.1213C307.23 33.5712 305.208 32.8597 303.61 33.8777C301.504 35.2197 299.336 36.4633 297.113 37.5854C296.007 38.1465 294.884 38.667 293.755 39.176C293.638 39.2281 293.515 39.2801 293.398 39.3264C293.091 39.4537 292.789 39.5809 292.482 39.7082C291.906 39.9453 291.325 40.1709 290.744 40.3907C286.761 41.9004 282.655 43.0514 278.487 43.8496C278.806 40.9518 279.387 38.106 280.241 35.3353C281.996 29.6437 284.806 24.3801 288.593 19.6891C290.314 17.5606 293.035 14.5586 296.75 13.101C297.197 12.9274 297.677 12.8291 298.091 12.8291C298.616 12.8291 298.984 12.9911 299.191 13.2861C299.163 13.3613 299.141 13.4364 299.113 13.5174C298.806 14.3446 298.487 15.2006 298.7 16.1377C298.834 16.7276 299.18 17.3003 299.761 17.8845C300.878 19.0066 302.348 19.747 303.895 19.9552C306.515 20.3138 307.878 17.7514 308.973 15.6923C309.186 15.2874 309.392 14.8941 309.605 14.5412C310.219 13.4885 310.778 12.2738 310.23 11.2269V11.2153Z" fill="var(--fill-0, #7A00DB)"/>
<path id="Vector_7" d="M321.842 71.7988C320.805 71.7703 319.986 71.5084 319.341 70.9844C318.228 70.0846 317.923 68.6494 318.574 67.3281C318.943 66.5707 319.56 66.0239 320.407 65.6936C320.811 65.5399 321.231 65.4146 321.658 65.3348L322.557 65.164L322.372 64.2755C321.952 62.2196 321.687 60.0384 321.531 57.4015C321.393 54.9925 321.393 52.3955 321.531 49.2347C321.589 47.9875 321.738 45.4133 322.119 42.1557C322.407 39.6555 322.793 37.087 323.266 34.5356L323.64 32.4967L321.883 33.6244C321.387 33.9433 320.805 34.097 320.102 34.097C319.813 34.097 319.502 34.0686 319.179 34.0173C319.07 34.0002 318.96 33.9718 318.857 33.9433C317.156 33.5105 316.28 32.4341 316.24 30.7426C316.194 28.4987 317.053 26.7446 317.151 26.551C321.358 18.4127 328.395 13.6743 328.695 13.475C332.977 10.6559 337.404 7.74 343.859 7.56914C344.118 7.56345 344.377 7.55775 344.637 7.55775C350.602 7.55775 355.685 9.38589 358.948 12.7005C365.576 19.4492 363.253 30.5262 362.262 35.2532C362.118 35.9423 358.492 52.219 338.781 65.6481C336.896 66.9352 334.314 68.6893 328.424 70.6313C326.77 71.1723 324.563 71.7988 322.182 71.7988C322.067 71.7988 321.957 71.7988 321.842 71.7988ZM345.692 15.0639C345.352 15.0639 345 15.081 344.648 15.1095C341.404 15.3829 338.228 16.5276 334.654 18.6974C334.366 18.874 334.193 19.1132 334.107 19.4777C333.421 22.1771 332.747 25.0931 332.032 28.3905C330.32 36.3352 329.254 42.8049 328.678 48.762C328.401 51.5925 328.245 54.3546 328.205 57.2136V57.4983C328.245 59.0019 328.28 60.5509 328.424 62.0943L328.551 63.4953L329.779 62.7891C332.021 61.502 333.951 60.2832 335.675 59.0702C340.689 55.5449 344.723 51.8203 347.997 47.6799C349.547 45.7208 350.936 43.6364 352.124 41.4722C354.89 36.4434 356.118 31.4716 355.881 26.2719C355.801 24.5463 355.484 22.9175 354.93 21.4197C353.461 17.4388 350.003 15.0639 345.686 15.0639H345.692Z" fill="var(--fill-0, #7A00DB)"/>
</g>
</svg>
