<svg preserveAspectRatio="none" width="100%" height="100%" overflow="visible" style="display: block;" viewBox="0 0 35.5556 32" fill="none" xmlns="http://www.w3.org/2000/svg">
<path id="Vector" d="M10.6667 32V30.2222L14.2222 26.6667H3.55556C2.57778 26.6667 1.74074 26.3185 1.04444 25.6222C0.348148 24.9259 0 24.0889 0 23.1111V3.55556C0 2.57778 0.348148 1.74074 1.04444 1.04444C1.74074 0.348148 2.57778 0 3.55556 0H32C32.9778 0 33.8148 0.348148 34.5111 1.04444C35.2074 1.74074 35.5556 2.57778 35.5556 3.55556V23.1111C35.5556 24.0889 35.2074 24.9259 34.5111 25.6222C33.8148 26.3185 32.9778 26.6667 32 26.6667H21.3333L24.8889 30.2222V32H10.6667ZM3.55556 17.7778H32V3.55556H3.55556V17.7778Z" fill="var(--fill-0, #7A00DB)"/>
</svg>
