<svg preserveAspectRatio="none" width="100%" height="100%" overflow="visible" style="display: block;" viewBox="0 0 32 32" fill="none" xmlns="http://www.w3.org/2000/svg">
<g id="Frame">
<path id="Vector" d="M26.431 28.3443L17.6187 19.55C16.9753 20.1011 16.2123 20.5229 15.3297 20.8153C14.447 21.1076 13.5123 21.2537 12.5257 21.2537C10.0688 21.2537 7.98644 20.4003 6.27867 18.6937C4.57067 16.9868 3.71667 14.928 3.71667 12.5173C3.71667 10.1067 4.567 8.04778 6.26767 6.34067C7.96833 4.63333 10.0381 3.77967 12.477 3.77967C14.8939 3.77967 16.9503 4.63333 18.6463 6.34067C20.3426 8.04822 21.1907 10.1078 21.1907 12.5193C21.1907 13.4871 21.0446 14.4032 20.7523 15.2677C20.4599 16.1321 20.027 16.9444 19.4537 17.7047L28.3 26.4753L26.431 28.3443ZM12.487 18.6963C14.2006 18.6963 15.6533 18.0969 16.8453 16.898C18.0373 15.6991 18.6333 14.238 18.6333 12.5147C18.6333 10.7913 18.0373 9.33089 16.8453 8.13333C15.6533 6.93578 14.1978 6.337 12.4787 6.337C10.75 6.337 9.28367 6.93644 8.07967 8.13533C6.87589 9.33422 6.274 10.7953 6.274 12.5187C6.274 14.242 6.87633 15.7024 8.081 16.9C9.28589 18.0976 10.7546 18.6963 12.487 18.6963Z" fill="var(--fill-0, #D1BADA)"/>
</g>
</svg>
