<svg width="1751" height="164" viewBox="0 0 1751 164" fill="none" xmlns="http://www.w3.org/2000/svg">
<path d="M1731.78 17.4482H1750.26V61.4167L1745.8 119.313H1736.51L1731.78 61.4167V17.4482ZM1731.78 132.24H1749.89V151.174H1731.78V132.24Z" fill="#FDF7FF"/>
<path d="M1717.06 17.4482V33.3788H1672V151.174H1653.62V33.3788H1608.55V17.4482H1717.06Z" fill="#FDF7FF"/>
<path d="M1581.28 17.4482H1599.58V151.174H1581.28V17.4482Z" fill="#FDF7FF"/>
<path d="M1038.22 17.4482H1135.72V33.834H1055.88V74.4342H1129.71V89.9097H1055.88V135.244H1137.08V151.174H1038.22V17.4482Z" fill="#FDF7FF"/>
<path d="M878.589 17.6543L903.805 126.437L934.027 17.6543H953.69L983.913 126.437L1009.13 17.6543H1028.97L993.835 151.38H974.809L943.95 40.5033L912.908 151.38H893.882L858.926 17.6543H878.589Z" fill="#FDF7FF"/>
<path d="M662.862 18.2959L688.078 127.079L718.301 18.2959H737.963L768.186 127.079L793.402 18.2959H813.247L778.109 152.022H759.083L728.223 41.1449L697.181 152.022H678.155L643.199 18.2959H662.862Z" fill="#FDF7FF"/>
<path d="M575.965 14.6543C599.572 14.6543 617.05 22.2403 628.399 37.4123C637.26 49.2464 641.69 64.3881 641.69 82.8372C641.69 102.804 636.622 119.402 626.487 132.632C614.593 148.168 597.63 155.936 575.601 155.936C555.027 155.936 538.854 149.139 527.081 135.545C516.582 122.436 511.332 105.868 511.332 85.8413C511.332 67.7563 515.823 52.2808 524.805 39.415C536.335 22.9079 553.389 14.6543 575.965 14.6543ZM577.785 139.732C593.746 139.732 605.277 134.027 612.377 122.618C619.539 111.148 623.119 97.9789 623.119 83.1103C623.119 67.3921 618.992 54.7387 610.739 45.15C602.546 35.5613 591.319 30.7669 577.057 30.7669C563.22 30.7669 551.932 35.531 543.193 45.059C534.454 54.5263 530.085 68.5149 530.085 87.0247C530.085 101.833 533.817 114.334 541.282 124.53C548.807 134.665 560.975 139.732 577.785 139.732Z" fill="#FDF7FF"/>
<path d="M393.297 18.2959H411.594V73.5523H481.143V18.2959H499.44V152.022H481.143V89.4829H411.594V152.022H393.297V18.2959Z" fill="#FDF7FF"/>
<path d="M236.977 18.2959H334.472V34.6816H254.637V75.2819H328.464V90.7573H254.637V136.091H335.837V152.022H236.977V18.2959Z" fill="#FDF7FF"/>
<path d="M121.949 18.2959H219.444V34.6816H139.609V75.2819H213.436V90.7573H139.609V136.091H220.81V152.022H121.949V18.2959Z" fill="#FDF7FF"/>
<path d="M17.0282 108.873C17.453 116.459 19.2433 122.619 22.399 127.352C28.4071 136.213 38.9972 140.643 54.1692 140.643C60.9662 140.643 67.1564 139.672 72.7397 137.73C83.5421 133.967 88.9434 127.231 88.9434 117.521C88.9434 110.238 86.6676 105.049 82.116 101.954C77.5037 98.9199 70.2818 96.2799 60.4504 94.0345L42.335 89.938C30.5009 87.2678 22.1259 84.3244 17.2102 81.1079C8.71391 75.5247 4.46575 67.1801 4.46575 56.0742C4.46575 44.058 8.62287 34.1962 16.9371 26.4888C25.2514 18.7814 37.0248 14.9277 52.2575 14.9277C66.2764 14.9277 78.1713 18.3263 87.942 25.1233C97.7735 31.8597 102.689 42.6621 102.689 57.5307H85.6662C84.7559 50.3695 82.8139 44.8772 79.8402 41.0539C74.3176 34.0748 64.9413 30.5852 51.7113 30.5852C41.0302 30.5852 33.3532 32.8307 28.6802 37.3216C24.0073 41.8125 21.6708 47.0317 21.6708 52.9791C21.6708 59.5334 24.4017 64.3277 29.8637 67.3621C33.4442 69.3041 41.5461 71.7317 54.1692 74.6447L72.9218 78.9232C81.9643 80.9866 88.9434 83.8086 93.8591 87.3891C102.355 93.64 106.604 102.713 106.604 114.608C106.604 129.416 101.202 140.006 90.3999 146.378C79.6581 152.75 67.1564 155.936 52.8947 155.936C36.2662 155.936 23.2487 151.688 13.842 143.192C4.43541 134.756 -0.176878 123.316 0.00518536 108.873H17.0282Z" fill="#FDF7FF"/>
<path d="M1329.89 163.675C1325.22 163.588 1322.33 161.423 1321.73 158.312C1321.14 155.256 1323.03 152.025 1326.55 150.894C1330.51 149.621 1334.61 148.817 1338.63 147.696C1343.14 146.434 1343.76 145.651 1344.19 141.028C1345.2 130.053 1346.12 119.067 1347.19 108.092C1348.38 95.7466 1349.75 83.4227 1350.94 71.0879C1351.61 64.2352 1352.01 57.35 1352.65 50.4864C1353.33 43.1661 1354.15 35.8675 1354.88 28.558C1355.07 26.7306 1355.31 24.8923 1355.27 23.065C1355.21 18.5618 1353.7 17.1913 1349.36 17.6372C1347.29 17.8439 1345.26 18.3225 1343.19 18.5074C1340.49 18.7358 1338.21 17.7786 1336.43 15.7011C1334.38 13.319 1334.34 10.5997 1336.37 8.20669C1337.6 6.76002 1339.08 5.67229 1340.96 5.28071C1343.22 4.81299 1345.5 4.10597 1347.78 4.06246C1358.93 3.8558 1369.78 1.25614 1380.81 0.103157C1383.46 -0.179651 1385.86 0.0596476 1388.09 1.57158C1391.69 4.02983 1391.92 7.90212 1388.68 10.8934C1387.06 12.3835 1385.13 12.8948 1383.01 13.1776C1380.03 13.5692 1377.06 14.0695 1374.12 14.6678C1371.75 15.1464 1370.78 16.865 1370.53 19.1492C1370.17 22.3471 1369.61 25.5232 1369.32 28.7211C1368.69 35.5846 1368.23 42.459 1367.6 49.3226C1366.92 56.6429 1366.17 63.9524 1365.34 71.251C1364.75 76.5047 1364.53 81.7802 1363.82 87.0339C1362.65 95.6813 1362 104.383 1361.25 113.074C1360.51 121.689 1358.74 130.521 1359.45 139.179C1359.62 141.137 1360.81 142.203 1362.69 141.877C1365.88 141.311 1369.02 140.539 1372.17 139.81C1375.35 139.081 1378.16 139.669 1380.48 142.007C1383.14 144.683 1383.02 147.957 1380.27 150.502C1379.06 151.634 1377.64 152.395 1376.05 152.754C1367.96 154.571 1360.3 157.866 1351.9 158.715C1346.2 159.291 1340.65 161.293 1335.01 162.62C1333 163.098 1330.97 163.49 1329.89 163.707V163.675Z" fill="#DABBFF"/>
<path d="M1225.99 161.749C1223.37 161.684 1221.3 161.012 1219.67 159.701C1216.85 157.435 1216.09 153.826 1217.73 150.488C1218.67 148.581 1220.23 147.193 1222.37 146.37C1223.39 145.979 1224.45 145.676 1225.53 145.47L1227.81 145.047L1227.35 142.815C1226.28 137.645 1225.61 132.139 1225.22 125.506C1224.87 119.437 1224.87 112.901 1225.22 104.935C1225.36 101.803 1225.75 95.3109 1226.71 87.1064C1227.45 80.7986 1228.41 74.3499 1229.6 67.912L1230.55 62.7747L1226.1 65.6143C1224.86 66.4163 1223.38 66.8065 1221.6 66.8065C1220.87 66.8065 1220.09 66.7415 1219.26 66.6114C1218.99 66.5681 1218.71 66.4922 1218.45 66.4272C1214.16 65.3325 1211.93 62.623 1211.84 58.3744C1211.73 52.7169 1213.9 48.3057 1214.15 47.818C1224.78 27.323 1242.57 15.3902 1243.32 14.8917C1254.15 7.79265 1265.34 0.455203 1281.66 0.0216763C1282.32 -1.99918e-08 1282.98 0 1283.63 0C1298.71 0 1311.56 4.59539 1319.8 12.9516C1336.57 29.9567 1330.69 57.8433 1328.18 69.7545C1327.82 71.4886 1318.65 112.489 1268.82 146.305C1264.05 149.545 1257.54 153.967 1242.64 158.844C1238.46 160.21 1232.87 161.781 1226.86 161.781C1226.58 161.781 1226.29 161.781 1226 161.781L1225.99 161.749ZM1286.28 18.8693C1285.43 18.8693 1284.53 18.9018 1283.64 18.9776C1275.44 19.6713 1267.41 22.5434 1258.37 28.0167C1257.64 28.461 1257.21 29.068 1256.99 29.9784C1255.26 36.7848 1253.54 44.1222 1251.75 52.4243C1247.42 72.4315 1244.72 88.7321 1243.27 103.721C1242.57 110.842 1242.18 117.811 1242.07 125.008L1242.09 125.723C1242.18 129.505 1242.27 133.418 1242.63 137.309L1242.96 140.831L1246.06 139.054C1251.73 135.813 1256.61 132.746 1260.97 129.69C1273.66 120.813 1283.84 111.438 1292.13 101.001C1296.05 96.0696 1299.56 90.8131 1302.57 85.3615C1309.56 72.7025 1312.68 60.1735 1312.07 47.081C1311.87 42.7349 1311.07 38.6273 1309.67 34.8664C1305.96 24.8411 1297.22 18.8693 1286.3 18.8693H1286.28Z" fill="#DABBFF"/>
<path d="M1410.89 161.749C1408.27 161.684 1406.2 161.012 1404.57 159.701C1401.75 157.435 1400.99 153.826 1402.63 150.488C1403.56 148.581 1405.13 147.193 1407.26 146.37C1408.29 145.979 1409.35 145.676 1410.42 145.47L1412.7 145.047L1412.24 142.815C1411.17 137.645 1410.5 132.139 1410.12 125.506C1409.76 119.437 1409.76 112.901 1410.12 104.935C1410.26 101.803 1410.64 95.3109 1411.6 87.1064C1412.34 80.7986 1413.31 74.3499 1414.5 67.912L1415.44 62.7747L1411 65.6143C1409.75 66.4163 1408.28 66.8065 1406.49 66.8065C1405.77 66.8065 1404.99 66.7415 1404.16 66.6114C1403.88 66.5681 1403.61 66.4922 1403.34 66.4272C1399.05 65.3325 1396.83 62.623 1396.74 58.3744C1396.63 52.7169 1398.8 48.3057 1399.04 47.818C1409.68 27.323 1427.47 15.3902 1428.22 14.8917C1439.04 7.79265 1450.24 0.455203 1466.55 0.0216763C1467.22 -1.99918e-08 1467.88 0 1468.53 0C1483.61 0 1496.46 4.59539 1504.69 12.9516C1521.46 29.9567 1515.58 57.8433 1513.07 69.7545C1512.71 71.4886 1503.55 112.489 1453.72 146.305C1448.95 149.545 1442.43 153.967 1427.53 158.844C1423.35 160.21 1417.77 161.781 1411.76 161.781C1411.47 161.781 1411.18 161.781 1410.9 161.781L1410.89 161.749ZM1471.18 18.8693C1470.32 18.8693 1469.43 18.9018 1468.54 18.9776C1460.33 19.6713 1452.31 22.5434 1443.27 28.0167C1442.53 28.461 1442.1 29.068 1441.88 29.9784C1440.15 36.7848 1438.43 44.1222 1436.64 52.4243C1432.31 72.4315 1429.62 88.7321 1428.16 103.721C1427.47 110.842 1427.07 117.811 1426.96 125.008L1426.98 125.723C1427.07 129.505 1427.16 133.418 1427.52 137.309L1427.85 140.831L1430.96 139.054C1436.63 135.813 1441.51 132.746 1445.87 129.69C1458.55 120.813 1468.73 111.438 1477.03 101.001C1480.94 96.0696 1484.46 90.8131 1487.46 85.3615C1494.45 72.7025 1497.57 60.1735 1496.96 47.081C1496.77 42.7349 1495.96 38.6273 1494.56 34.8664C1490.85 24.8411 1482.11 18.8693 1471.19 18.8693H1471.18Z" fill="#DABBFF"/>
</svg>
